<?xml version="1.0" standalone="no"?>
<!DOCTYPE svg PUBLIC "-//W3C//DTD SVG 20010904//EN"
 "http://www.w3.org/TR/2001/REC-SVG-20010904/DTD/svg10.dtd">
<svg version="1.0" xmlns="http://www.w3.org/2000/svg"
 width="387.000000pt" height="645.000000pt" viewBox="0 0 387.000000 645.000000"
 preserveAspectRatio="xMidYMid meet">
<metadata>
Created by potrace 1.16, written by Peter Selinger 2001-2019
</metadata>
<g transform="translate(0.000000,645.000000) scale(0.100000,-0.100000)"
fill="#000000" stroke="none">
<path d="M1775 5953 c-39 -9 -123 -54 -150 -80 -35 -35 -65 -99 -65 -137 0
-24 -3 -27 -10 -16 -7 10 -8 -5 -4 -45 3 -33 6 -68 6 -79 -1 -10 6 -29 15 -42
14 -22 14 -24 -1 -18 -12 5 -15 2 -9 -12 4 -11 3 -15 -4 -11 -7 4 -9 -5 -7
-26 7 -66 28 -123 56 -153 15 -17 25 -33 22 -37 -4 -4 -2 -7 5 -7 8 0 11 -7 7
-15 -3 -8 1 -20 8 -28 15 -15 56 -104 56 -122 0 -17 -62 -70 -102 -88 -18 -8
-46 -20 -63 -27 -16 -8 -33 -13 -37 -12 -3 1 -12 -5 -18 -13 -7 -8 -18 -15
-25 -15 -6 0 -32 -11 -56 -23 -24 -13 -61 -30 -83 -37 -59 -19 -122 -98 -139
-175 -2 -5 -7 -16 -11 -24 -5 -8 -11 -71 -12 -140 -2 -69 -8 -160 -14 -201 -7
-41 -13 -124 -14 -185 -1 -74 -8 -127 -20 -162 -9 -28 -18 -61 -19 -72 -1 -12
-4 -21 -7 -21 -3 0 -6 -8 -7 -17 -1 -22 -11 -88 -13 -88 -3 0 -9 -203 -14
-430 -3 -121 -9 -258 -15 -305 -6 -62 -6 -87 2 -92 9 -6 9 -8 0 -8 -20 0 -15
-35 7 -55 11 -10 20 -28 20 -39 0 -17 2 -18 10 -6 8 12 10 11 10 -7 0 -13 5
-23 10 -23 6 0 10 -7 10 -16 0 -8 5 -12 10 -9 5 3 10 2 10 -4 0 -24 120 -57
138 -39 6 6 23 7 39 4 30 -7 30 -7 31 -84 1 -103 7 -191 15 -222 4 -14 8 -43
10 -65 2 -22 7 -47 12 -54 4 -8 8 -97 7 -198 0 -168 -10 -260 -32 -304 -5 -9
-6 -39 -3 -68 2 -28 1 -51 -4 -51 -4 0 -8 -40 -8 -89 0 -49 3 -85 6 -80 3 5 5
-14 5 -43 0 -79 13 -264 24 -338 5 -36 10 -127 10 -203 0 -126 -6 -163 -30
-187 -3 -3 -11 -17 -19 -32 -8 -16 -20 -28 -28 -28 -7 0 -18 -9 -25 -21 -7
-11 -39 -34 -70 -51 -53 -28 -58 -33 -64 -74 -5 -39 -3 -48 18 -69 40 -40 103
-51 189 -35 41 8 78 13 82 12 5 -1 6 2 2 8 -3 5 2 10 13 10 23 0 52 30 52 53
0 9 5 17 11 17 5 0 8 4 5 8 -4 7 10 11 52 14 6 1 12 5 12 8 0 4 13 13 29 20
38 15 49 68 30 143 -19 76 -15 413 5 446 3 4 10 50 16 102 13 109 25 160 48
209 12 26 18 78 22 210 3 96 9 180 13 187 4 6 9 31 12 54 3 24 11 62 17 84 6
22 12 63 14 90 2 28 9 75 14 105 6 30 11 67 10 82 0 15 4 29 9 33 6 3 8 12 5
20 -3 8 -2 20 2 27 4 7 10 31 11 53 2 22 13 74 25 115 12 41 27 111 35 155 16
95 18 104 28 128 7 17 8 17 27 0 13 -12 17 -25 13 -43 -4 -17 -3 -20 3 -11 12
17 35 -71 41 -152 0 -10 5 -16 10 -13 10 6 21 -26 21 -62 0 -12 7 -34 16 -47
9 -13 12 -30 8 -36 -5 -8 -3 -9 5 -5 8 5 11 3 10 -5 -2 -8 2 -23 8 -34 6 -12
13 -34 16 -50 2 -17 9 -42 15 -58 7 -15 21 -65 33 -110 11 -45 25 -87 30 -93
5 -6 10 -24 12 -40 2 -16 9 -42 15 -57 7 -16 10 -33 6 -38 -3 -5 -1 -9 4 -9
11 0 27 -90 24 -133 -1 -16 2 -26 6 -23 5 3 10 -46 10 -109 2 -109 8 -138 44
-208 5 -10 6 -22 2 -28 -3 -5 -1 -16 5 -23 7 -8 11 -18 9 -22 -1 -5 3 -43 10
-84 7 -41 14 -106 16 -145 2 -38 7 -79 12 -89 5 -14 4 -17 -4 -12 -17 10 -15
-9 3 -24 20 -17 20 -115 -1 -171 -9 -24 -16 -52 -16 -62 1 -9 -3 -15 -8 -12
-5 3 -3 -14 4 -39 8 -25 12 -47 9 -50 -3 -2 8 -11 24 -20 16 -8 35 -22 42 -30
7 -9 17 -13 22 -11 5 3 14 -3 21 -15 7 -11 17 -20 23 -20 6 0 17 -15 25 -32
15 -36 22 -45 61 -86 43 -44 80 -67 102 -64 10 2 17 0 14 -5 -3 -4 21 -8 54
-8 32 0 59 3 59 6 0 4 7 10 16 13 10 4 13 2 8 -7 -4 -6 2 -3 14 7 26 23 30 96
7 136 -8 14 -14 20 -15 13 0 -26 -126 116 -157 178 -56 110 -58 141 -35 400
12 135 5 659 -9 705 -5 18 -9 36 -8 40 3 10 -6 76 -23 173 -6 35 -11 203 -12
380 -1 284 1 318 16 333 12 12 18 13 22 5 3 -9 5 -9 5 1 1 7 11 29 24 50 33
54 45 97 52 187 7 85 27 207 45 265 5 19 10 48 10 63 0 16 4 26 9 23 5 -4 8 1
7 10 -1 8 4 43 11 77 28 126 37 281 23 402 -6 55 -13 129 -15 165 -9 175 -18
252 -36 320 -11 41 -25 100 -30 130 -23 129 -31 163 -46 193 -8 16 -12 31 -9
35 3 3 -3 11 -14 19 -11 8 -20 20 -20 27 0 22 -83 92 -144 122 -31 15 -56 31
-56 36 0 4 -11 8 -24 8 -13 0 -26 5 -28 12 -2 6 -11 12 -19 14 -23 4 -82 25
-118 43 -34 16 -38 17 -78 19 -12 1 -34 13 -48 26 -23 21 -26 32 -24 75 2 28
0 54 -4 57 -16 16 -5 58 25 100 17 24 34 44 37 44 14 0 12 130 -2 150 -7 11
-16 18 -18 16 -2 -2 -4 24 -5 57 -1 75 -17 136 -44 167 -11 13 -20 28 -20 35
0 6 -7 20 -16 31 -8 10 -12 12 -8 4 3 -8 -6 -1 -22 15 -58 60 -147 87 -229 68z
m141 -59 c19 -9 34 -21 34 -26 0 -5 4 -7 9 -3 13 7 95 -114 94 -138 -1 -10 3
-15 9 -11 7 5 9 0 6 -14 -4 -12 -3 -22 1 -22 11 0 13 -80 2 -94 -5 -6 -11 -25
-13 -41 -3 -27 0 -30 25 -29 26 1 27 -1 21 -35 -8 -51 -15 -73 -21 -68 -2 3
-18 -9 -35 -25 -22 -21 -27 -32 -19 -38 9 -5 10 -20 3 -58 -5 -28 -5 -57 -1
-64 5 -7 9 -35 9 -61 0 -34 5 -49 16 -54 8 -3 13 -11 10 -19 -3 -8 2 -11 13
-9 10 2 31 -3 46 -11 15 -8 35 -14 45 -14 28 0 158 -56 171 -73 3 -5 8 -7 10
-5 7 5 89 -34 89 -44 0 -4 9 -8 20 -8 11 0 40 -20 64 -44 25 -24 46 -42 48
-40 2 2 10 -6 17 -18 10 -16 10 -19 -1 -12 -7 4 -6 -1 3 -12 28 -33 51 -85 46
-105 -3 -11 -2 -17 2 -14 10 5 34 -122 26 -135 -4 -6 -2 -10 2 -10 5 0 9 -8
10 -17 1 -10 8 -44 16 -75 8 -32 12 -60 9 -63 -3 -3 -1 -5 5 -5 6 0 11 -10 11
-22 5 -174 14 -310 24 -337 9 -29 12 -129 8 -281 -1 -39 -30 -209 -41 -237 -5
-13 -9 -35 -9 -48 0 -13 -5 -36 -12 -52 -6 -15 -12 -37 -13 -48 -1 -11 -2 -30
-3 -43 -1 -13 -6 -21 -11 -18 -5 4 -7 -2 -4 -13 3 -10 0 -22 -6 -25 -5 -4 -8
-13 -4 -21 3 -9 -1 -23 -8 -32 -12 -14 -12 -16 0 -8 12 7 13 -3 8 -60 -7 -70
-33 -155 -48 -155 -5 0 -9 -6 -9 -13 0 -20 -71 -83 -108 -95 -34 -12 -95 -6
-87 9 3 4 0 11 -8 16 -9 5 -11 18 -6 38 4 17 7 22 8 13 1 -23 51 -25 51 -3 0
8 6 15 13 15 6 0 21 15 33 33 16 25 19 38 11 60 -11 35 -47 33 -64 -3 -10 -23
-12 -23 -19 -6 -4 11 -2 21 6 26 8 5 8 10 2 14 -13 8 -3 48 14 59 7 4 11 13 9
20 -3 6 18 39 45 71 27 33 47 63 44 68 -3 4 -1 8 5 8 6 0 8 6 5 14 -3 7 1 20
9 27 10 11 13 58 10 234 -2 186 -7 266 -27 470 -2 11 -8 34 -15 50 -7 17 -18
54 -24 83 -6 28 -15 52 -19 52 -4 0 -8 12 -8 28 0 15 -5 34 -10 42 -8 12 -10
11 -10 -7 0 -13 -4 -23 -10 -23 -5 0 -10 -10 -10 -22 -1 -13 -7 -34 -15 -48
-8 -14 -15 -38 -15 -55 0 -20 -3 -26 -9 -17 -5 9 -8 5 -8 -15 0 -15 -5 -59
-12 -98 -9 -51 -10 -121 -4 -255 4 -102 8 -199 8 -217 0 -17 3 -29 7 -26 5 2
7 -6 7 -19 0 -13 3 -40 7 -62 5 -28 3 -40 -7 -47 -10 -6 -10 -9 -2 -9 7 0 13
-10 13 -22 -1 -43 6 -83 19 -109 11 -23 11 -30 -4 -53 -9 -14 -20 -24 -24 -21
-4 2 -8 -1 -9 -8 -7 -89 -38 -200 -53 -191 -5 3 -9 -3 -10 -13 -6 -111 -5
-115 18 -126 13 -6 23 -15 23 -21 0 -6 5 -4 10 4 5 8 10 10 10 4 0 -7 19 -11
50 -10 29 1 50 -2 50 -9 0 -6 4 -5 8 2 5 7 13 9 21 3 19 -11 30 -197 18 -315
-5 -49 -6 -139 -2 -200 4 -60 7 -122 8 -137 1 -16 5 -28 9 -28 3 0 6 -19 6
-43 0 -23 7 -85 16 -137 18 -111 28 -590 15 -690 -17 -126 -23 -196 -21 -250
1 -65 3 -73 27 -125 10 -22 19 -48 20 -57 1 -9 9 -24 18 -32 9 -9 19 -25 22
-36 3 -11 10 -20 14 -20 5 0 14 -13 21 -30 7 -16 15 -28 19 -26 3 2 24 -12 46
-31 22 -19 33 -32 25 -29 -8 4 -5 -1 8 -10 68 -50 -46 -99 -134 -58 -39 19
-104 89 -104 113 0 9 -14 31 -30 50 -17 18 -30 31 -30 27 0 -9 -47 23 -83 55
-29 27 -39 72 -21 100 5 8 9 19 9 24 1 6 4 30 9 55 13 79 13 104 -1 153 -8 26
-13 56 -12 65 2 9 0 31 -4 47 -4 17 -9 64 -12 105 -6 90 -21 186 -32 203 -23
35 -35 95 -43 216 -13 179 -31 263 -100 475 -5 16 -7 33 -4 37 3 5 1 9 -3 9
-9 0 -32 68 -37 110 -2 14 -9 39 -16 55 -26 61 -29 71 -36 105 -3 19 -14 55
-24 80 -10 25 -23 70 -30 100 -7 30 -16 62 -21 70 -4 8 -13 35 -20 60 -16 58
-39 80 -82 80 -33 0 -35 -2 -50 -56 -9 -30 -14 -61 -11 -67 2 -7 -2 -35 -11
-62 -8 -28 -15 -62 -15 -76 0 -15 -7 -46 -16 -70 -8 -24 -22 -84 -30 -133 -8
-50 -19 -96 -25 -102 -6 -7 -8 -26 -5 -41 4 -16 0 -60 -9 -98 -9 -39 -17 -92
-20 -120 -2 -27 -8 -62 -14 -76 -5 -15 -7 -36 -4 -48 3 -12 1 -21 -5 -21 -14
0 -22 -71 -28 -258 -3 -92 -10 -160 -15 -157 -5 4 -6 0 -3 -8 3 -8 1 -18 -5
-22 -6 -3 -11 -15 -11 -25 0 -10 -6 -25 -13 -32 -7 -7 -11 -33 -11 -58 1 -25
-2 -70 -8 -100 -5 -30 -11 -66 -14 -80 -20 -119 -36 -385 -24 -405 9 -14 30
-90 30 -107 0 -19 -58 -80 -69 -73 -5 2 -23 0 -40 -6 -28 -10 -36 -20 -32 -42
1 -4 -5 -10 -13 -13 -8 -3 -12 -12 -9 -20 3 -8 2 -14 -3 -13 -5 2 -28 -3 -51
-10 -76 -21 -141 -23 -172 -5 -30 18 -33 54 -4 54 9 0 13 6 10 14 -4 10 -1 13
7 10 21 -8 146 115 168 166 18 39 20 65 19 190 0 80 -3 163 -5 185 -37 320
-41 592 -12 715 26 109 27 415 3 550 -28 153 -38 270 -31 372 4 54 11 101 15
104 5 3 7 15 4 27 -3 12 0 47 6 77 15 79 18 104 28 209 4 54 13 97 19 99 6 2
9 9 6 17 -3 7 1 42 9 77 15 60 30 141 42 218 3 19 7 136 10 260 3 188 2 232
-11 265 -9 22 -16 48 -17 58 -1 19 -30 32 -48 22 -6 -4 -9 -16 -6 -26 3 -10
-1 -23 -9 -30 -8 -6 -14 -30 -14 -53 0 -23 -6 -50 -14 -61 -7 -11 -16 -42 -19
-70 -4 -27 -13 -86 -21 -129 -8 -44 -13 -83 -11 -87 7 -11 -37 -179 -50 -192
-7 -7 -15 -29 -19 -50 -4 -20 -11 -37 -16 -37 -5 0 -7 -7 -4 -15 3 -8 -3 -46
-15 -84 -12 -39 -20 -74 -20 -78 3 -13 -13 -63 -20 -63 -19 0 -9 -58 14 -83
14 -15 22 -27 18 -27 -4 0 -1 -5 9 -10 10 -6 14 -18 11 -30 -3 -11 0 -20 6
-20 7 0 11 -20 11 -51 0 -43 -3 -50 -17 -47 -10 2 -17 9 -16 15 1 6 -10 8 -30
4 -30 -6 -32 -10 -35 -55 -3 -49 17 -96 41 -96 7 0 20 -9 30 -20 17 -20 17
-20 -15 -16 -18 2 -41 7 -50 11 -18 7 -54 55 -41 55 4 0 -1 6 -12 13 -12 9
-15 19 -10 28 5 8 5 11 0 7 -8 -8 -34 32 -28 44 5 10 14 293 14 483 1 219 14
388 35 451 9 26 17 60 19 75 2 15 8 45 14 66 6 21 11 79 12 130 1 50 6 115 11
145 5 29 9 113 9 186 l1 133 38 77 c29 59 49 85 83 110 25 18 48 32 50 32 3 0
27 10 54 21 26 12 56 23 66 24 11 1 22 7 26 14 4 6 17 13 29 16 12 2 29 11 38
20 9 8 20 13 25 10 5 -4 9 -1 9 5 0 6 4 9 9 6 5 -3 14 0 20 8 12 15 59 31 76
27 5 -2 7 0 3 4 -3 4 0 24 7 45 16 45 2 125 -29 173 -10 15 -14 27 -10 27 5 0
3 4 -4 8 -7 5 -14 22 -15 39 -1 17 -4 29 -6 27 -2 -2 -17 10 -34 27 -22 23
-28 38 -25 59 2 16 1 27 -4 24 -4 -3 -8 -1 -8 4 0 6 7 13 16 16 14 5 15 15 10
54 -4 26 -8 55 -9 65 -1 9 -5 17 -9 17 -4 0 -8 21 -8 46 0 32 3 43 12 38 6 -4
8 -3 5 3 -3 5 0 30 8 56 13 44 37 77 66 90 8 4 32 18 54 31 48 30 130 34 181
10z m551 -1763 c-1 -3 5 -17 12 -30 8 -14 11 -36 7 -55 -4 -22 -3 -27 4 -16 8
12 10 8 11 -15 0 -16 3 -48 5 -70 3 -22 7 -156 10 -298 5 -246 4 -260 -15
-301 -12 -23 -21 -48 -21 -55 0 -9 -5 -7 -16 4 -9 8 -13 22 -10 30 3 8 2 15
-3 15 -4 0 -8 28 -8 63 0 34 -3 73 -7 87 -3 14 -10 43 -15 65 -12 49 -18 412
-8 475 10 65 17 81 29 74 7 -5 9 0 6 13 -3 12 0 20 8 20 7 0 12 -3 11 -6z
m-1009 -17 c-3 -3 -2 -21 2 -40 5 -19 4 -135 0 -257 -7 -181 -12 -237 -30
-302 -35 -127 -43 -168 -56 -307 -4 -43 -10 -78 -14 -78 -7 0 -12 -47 -13
-102 0 -15 -6 -29 -13 -32 -8 -3 -13 -19 -13 -38 l2 -33 7 35 7 35 2 -32 c1
-33 -13 -51 -25 -32 -3 6 -7 49 -8 94 0 46 -4 87 -8 91 -5 4 -8 14 -8 21 0 8
-10 29 -23 46 -13 18 -23 43 -22 57 1 37 17 123 24 135 3 6 6 15 6 20 3 33 21
99 45 160 33 85 47 141 56 228 4 37 9 65 13 63 3 -2 7 12 7 32 1 21 4 53 7 72
3 19 8 50 11 69 3 19 12 41 21 51 8 9 12 19 9 23 -7 6 3 27 13 27 4 0 4 -2 1
-6z"/>
</g>
</svg>
